<svg width="1206" height="512" xmlns="http://www.w3.org/2000/svg">
 <g>
  <title>tempus.f</title>
  <!-- #1E88E5 -->
  <rect x="707" y="15" width="480" height="480" rx="80" ry="80" fill="#B0B0B0" id="svg_1"/>
  <circle cx="948" cy="256" r="170" fill="#111111" id="svg_2"/>
  <circle cx="948" cy="256" r="135" fill="#181818" id="svg_3"/>
  <circle cx="948" cy="256" r="70" fill="#E53935" id="svg_4"/>
  <circle cx="948" cy="256" r="10" fill="#252525" id="svg_5"/>
  <ellipse fill="#999999" cx="1088.5" cy="117.5" id="svg_15" rx="42.5" ry="42.5"/>
  <circle cx="948" cy="256" r="95" fill="none" stroke="#222222" stroke-width="1.2" opacity="0.4" id="svg_13"/>
  <circle cx="948" cy="255" r="120" fill="none" stroke="#222222" stroke-width="1.5" opacity="0.5" id="svg_12"/>
  <circle fill="#1E88E5" cx="1088.5" cy="117.5" r="17.5" id="svg_6"/>
  <path d="m1087,124c-47,8 -45,76 -47,138c0,0 -2,93 -60,90" stroke="#1E88E5" stroke-width="13" fill="none" stroke-linecap="round" id="svg_7"/>
  <!--
  <path d="m329.92509,218.1844l43.69745,0l0,0c5.72449,0 10.3651,4.92487 10.3651,11c0,6.07513 -4.64061,11 -10.3651,11l-43.69745,0l0,0c-5.72448,0 -10.3651,-4.92487 -10.3651,-11c0,-6.07514 4.64061,-11 10.3651,-11z" id="svg_14" fill="#1E88E5" transform="translate(1,0)"/>
  -->
  <!-- 心电图折线 -->
  <polyline id="svg_8" points="1021,254 1030.5999755859375,254 1035.4000244140625,234 1037.800048828125,274 1040.199951171875,214 1043.800048828125,284 1047.4000244140625,254 1057,254 1061.800048828125,244 1066.5999755859375,264 1071.4000244140625,254 1081,254 1085.800048828125,234 1088.199951171875,274 1090.5999755859375,224 1094.199951171875,284 1097.800048828125,254 1107.4000244140625,254 1117,254 " stroke-linecap="round" stroke-linejoin="round" stroke-width="3" stroke="#B8874D" fill="none"/>
  <text stroke="#f4f4f4" xml:space="preserve" text-anchor="start" font-family="Noto Sans JP" font-size="116" stroke-width="0" id="svg_9" y="167" x="25" fill="rgba(250,250,250,0.4)" dx="5" dy="5">Tempus-F</text>
  <text stroke="#f41111" xml:space="preserve" text-anchor="start" font-family="Noto Sans JP" font-size="116" stroke-width="0" id="svg_9" y="167" x="25" fill="#070606">Tempus-F</text>
  <text xml:space="preserve" text-anchor="start" font-family="Noto Sans JP" font-size="150" stroke-width="0" id="svg_10" y="368" x="149" fill="#007fff">光阴</text>
 </g>

</svg>